HIERARCHY
ROOT Hips
{
	OFFSET 0.000000 0.000000 0.000000
	CHANNELS 6 Xposition Yposition Zposition Zrotation Yrotation Xrotation 
	JOINT LHipJoint
	{
		OFFSET 0.000000 0.000000 0.000000
		CHANNELS 3 Zrotation Yrotation Xrotation
		JOINT LeftUpLeg
		{
			OFFSET 1.363060 -1.794630 0.839290
			CHANNELS 3 Zrotation Yrotation Xrotation
			JOINT LeftLeg
			{
				OFFSET 2.448110 -6.726130 0.000000
				CHANNELS 3 Zrotation Yrotation Xrotation
				JOINT LeftFoot
				{
					OFFSET 2.562200 -7.039590 0.000000
					CHANNELS 3 Zrotation Yrotation Xrotation
					JOINT LeftToeBase
					{
						OFFSET 0.157640 -0.433110 2.322550
						CHANNELS 3 Zrotation Yrotation Xrotation
						End Site
						{
							OFFSET 0.000000 0.000000 0.000000
						}
					}
				}
			}
		}
	}
	JOINT RHipJoint
	{
		OFFSET 0.000000 0.000000 0.000000
		CHANNELS 3 Zrotation Yrotation Xrotation
		JOINT RightUpLeg
		{
			OFFSET -1.305520 -1.794630 0.839290
			CHANNELS 3 Zrotation Yrotation Xrotation
			JOINT RightLeg
			{
				OFFSET -2.542530 -6.985550 0.000000
				CHANNELS 3 Zrotation Yrotation Xrotation
				JOINT RightFoot
				{
					OFFSET -2.568260 -7.056230 0.000000
					CHANNELS 3 Zrotation Yrotation Xrotation
					JOINT RightToeBase
					{
						OFFSET -0.164730 -0.452590 2.363150
						CHANNELS 3 Zrotation Yrotation Xrotation
						End Site
						{
							OFFSET 0.000000 0.000000 0.000000
						}
					}
				}
			}
		}
	}
}
MOTION
Frames: 17
Frame Time: 0.008333
4.827248 17.331543 0.767026 -175.134794 -75.759945 -176.946292 -12.004527 2.773047 0.638018 -5.113323 24.207732 -9.983406 -2.414813 -1.498461 -1.168723 1.245338 10.157785 -1.435124 1.114700 0.000000 -28.018000 8.341717 -3.073395 5.698193 6.131103 6.646794 -9.914856 3.081163 1.271006 1.638863 0.514431 3.704621 -1.537072 0.067401 -0.000000 -31.382700
4.812102 17.333921 0.775351 -175.427374 -74.931707 -176.388701 -12.026780 2.792422 0.620791 -5.362776 24.627541 -10.294200 -2.447671 -1.519760 -1.179126 1.284145 10.434318 -1.498910 1.134600 0.000000 -27.892100 8.312461 -3.086927 5.860451 5.980329 7.025555 -10.416686 3.108672 1.275366 1.696133 0.589945 4.150360 -1.340112 0.124500 0.000000 -31.643500
4.798148 17.336285 0.783972 -175.685761 -74.092734 -175.848807 -12.049143 2.815489 0.601220 -5.629411 25.061674 -10.629762 -2.485636 -1.539178 -1.206274 1.319197 10.681058 -1.547314 1.154001 -0.000000 -27.778600 8.282966 -3.093292 6.019807 5.825108 7.400202 -10.930719 3.136965 1.284085 1.732640 0.665748 4.594365 -1.128699 0.183999 0.000000 -31.902900
4.785941 17.338584 0.792824 -175.915723 -73.249436 -175.327421 -12.071382 2.841654 0.577134 -5.910488 25.509167 -10.984278 -2.528523 -1.556052 -1.250924 1.349841 10.894025 -1.579244 1.172700 -0.000000 -27.678000 8.253637 -3.091253 6.173122 5.666500 7.769527 -11.451737 3.165517 1.296313 1.753781 0.740788 5.030815 -0.906952 0.245199 0.000000 -32.154500
4.775425 17.340783 0.801774 -176.117519 -72.408421 -174.817225 -12.092686 2.870777 0.551143 -6.208437 25.955851 -11.360366 -2.575491 -1.570887 -1.315870 1.377090 11.079841 -1.595269 1.191800 0.000000 -27.588900 8.224429 -3.080915 6.322336 5.503235 8.141841 -11.984200 3.193468 1.312081 1.761979 0.813139 5.446046 -0.678085 0.306400 -0.000000 -32.401900
4.767488 17.342935 0.811000 -176.290007 -71.575436 -174.337846 -12.113727 2.901389 0.514926 -6.509920 26.415211 -11.738511 -2.626293 -1.581572 -1.398254 1.398829 11.225737 -1.591695 1.210300 -0.000000 -27.513200 8.196407 -3.060147 6.457647 5.341729 8.503987 -12.505621 3.220928 1.329657 1.760687 0.883068 5.843076 -0.441676 0.368000 0.000000 -32.638501
4.762130 17.345054 0.820437 -176.431338 -70.757999 -173.887338 -12.133710 2.933114 0.470593 -6.814156 26.873732 -12.117954 -2.679634 -1.588434 -1.499362 1.416144 11.338844 -1.569438 1.229000 0.000000 -27.450600 8.169764 -3.029210 6.580067 5.182821 8.861576 -13.015174 3.247242 1.349135 1.748733 0.948943 6.209417 -0.198348 0.428300 0.000000 -32.872300
4.759743 17.347189 0.830225 -176.538295 -69.963694 -173.476760 -12.152566 2.964944 0.415701 -7.112462 27.330665 -12.488868 -2.734490 -1.590664 -1.617385 1.428652 11.417007 -1.527655 1.247800 0.000000 -27.402800 8.145218 -2.987541 6.685406 5.031281 9.208978 -13.499394 3.272337 1.370018 1.723791 1.010235 6.540697 0.053879 0.486500 -0.000001 -33.108901
4.760659 17.349473 0.840484 -176.609614 -69.200100 -173.116989 -12.170331 2.996009 0.346926 -7.394955 27.788539 -12.839363 -2.789985 -1.587206 -1.749430 1.435667 11.456509 -1.464268 1.266300 -0.000001 -27.370500 8.123883 -2.934493 6.768166 4.892711 9.536034 -13.942475 3.296347 1.391651 1.683815 1.066985 6.837211 0.317668 0.542800 -0.000000 -33.350200
4.764933 17.352006 0.851296 -176.643901 -68.475991 -172.813999 -12.186725 3.025899 0.264560 -7.655371 28.242126 -13.163109 -2.844949 -1.577785 -1.893626 1.437340 11.458471 -1.378872 1.284500 -0.000000 -27.354200 8.106508 -2.870344 6.826127 4.771680 9.836050 -14.334315 3.319389 1.414095 1.624153 1.118830 7.095569 0.595613 0.596400 0.000000 -33.600900
4.772464 17.354799 0.862808 -176.638586 -67.801761 -172.573292 -12.201636 3.054516 0.170545 -7.887166 28.684222 -13.455207 -2.898156 -1.562449 -2.047750 1.433977 11.424209 -1.273124 1.302100 0.000000 -27.356200 8.093500 -2.795975 6.858526 4.672356 10.103526 -14.664677 3.341646 1.437925 1.537815 1.165212 7.310536 0.889753 0.646400 0.000000 -33.873600
4.783221 17.358021 0.875070 -176.597170 -67.185884 -172.398157 -12.214941 3.081756 0.065156 -8.085067 29.112707 -13.709608 -2.948812 -1.540898 -2.209067 1.425473 11.353155 -1.145904 1.318800 -0.000000 -27.374800 8.085811 -2.711751 6.862570 4.598766 10.326589 -14.924454 3.363507 1.463047 1.422269 1.206559 7.485366 1.201496 0.693100 -0.000000 -34.164500
4.796973 17.361692 0.888153 -176.521788 -66.637413 -172.289124 -12.226595 3.108066 -0.048533 -8.245848 29.520371 -13.923424 -2.995987 -1.513453 -2.375661 1.412200 11.247063 -0.998320 1.334400 0.000000 -27.408900 8.083793 -2.618931 6.838410 4.553149 10.498140 -15.107814 3.385215 1.489940 1.273522 1.242797 7.618997 1.530828 0.735600 0.000000 -34.474601
4.813319 17.365822 0.902025 -176.416407 -66.163859 -172.243425 -12.236546 3.134114 -0.167166 -8.368924 29.900745 -14.095909 -3.039048 -1.480590 -2.545341 1.394645 11.108197 -0.832226 1.348300 0.000000 -27.456500 8.087709 -2.518886 6.786831 4.535891 10.611582 -15.212671 3.406927 1.518935 1.090593 1.274028 7.712183 1.875562 0.773600 0.000000 -34.803200
4.831935 17.370401 0.916646 -176.287820 -65.770822 -172.255909 -12.244646 3.160632 -0.287038 -8.455727 30.246919 -14.227462 -3.077459 -1.442995 -2.716627 1.373441 10.939798 -0.650166 1.360200 0.000000 -27.514000 8.097699 -2.413040 6.709538 4.545352 10.662809 -15.240459 3.428583 1.550135 0.875153 1.300402 7.766349 2.231907 0.806300 0.000001 -35.146500
4.852287 17.375387 0.931852 -176.141135 -65.461314 -172.318219 -12.250777 3.188530 -0.404018 -8.510371 30.551304 -14.321185 -3.110820 -1.401585 -2.888243 1.349557 10.747498 -0.454792 1.370100 0.000000 -27.576500 8.113639 -2.303009 6.609336 4.578185 10.650415 -15.198166 3.450015 1.583508 0.632322 1.322109 7.783592 2.593852 0.832900 -0.000000 -35.492900
4.874216 17.380579 0.947596 -175.985071 -65.233992 -172.424744 -12.254828 3.218422 -0.516229 -8.536430 30.813460 -14.378610 -3.139290 -1.357026 -3.056895 1.323391 10.533004 -0.251445 1.376700 0.000000 -27.640800 8.135235 -2.190252 6.489675 4.628655 10.580335 -15.090618 3.470516 1.618645 0.367525 1.338983 7.763210 2.955480 0.852400 -0.000000 -35.854200
